<?xml version="1.0" encoding="utf-8"?>
<!-- Generator: Adobe Illustrator 16.0.0, SVG Export Plug-In . SVG Version: 6.00 Build 0)  -->
<!DOCTYPE svg PUBLIC "-//W3C//DTD SVG 1.1//EN" "http://www.w3.org/Graphics/SVG/1.1/DTD/svg11.dtd">
<svg version="1.1" id="Capa_2" xmlns="http://www.w3.org/2000/svg" xmlns:xlink="http://www.w3.org/1999/xlink" x="0px" y="0px"
	 width="400px" height="400px" viewBox="0 0 400 400" enable-background="new 0 0 400 400" xml:space="preserve">
<path fill-rule="evenodd" clip-rule="evenodd" d="M341.45,340.4c-39.033,39.033-86.167,58.533-141.4,58.5
	c-55.233,0.033-102.383-19.483-141.45-58.551C19.567,301.316,0.05,254.167,0.05,198.9c0-55.2,19.517-102.316,58.55-141.35
	C97.667,18.483,144.817-1.067,200.05-1.1c55.233,0.033,102.367,19.567,141.4,58.6c39.066,39.067,58.6,86.2,58.6,141.4
	C400.05,254.167,380.517,301.333,341.45,340.4z M62.65,198.9c0,38,13.4,70.4,40.2,97.2c26.833,26.834,59.233,40.233,97.2,40.2
	c25.7,0.033,48.851-6.1,69.45-18.399L81.15,129.55C68.817,150.117,62.65,173.233,62.65,198.9z M297.2,101.75
	c-26.8-26.8-59.184-40.217-97.15-40.25c-26.8,0-50.816,6.717-72.05,20.15l189.4,189.4c13.399-21.267,20.083-45.316,20.05-72.15
	C337.45,160.967,324.033,128.583,297.2,101.75z"/>
</svg>
