<?xml version="1.0" encoding="utf-8"?>
<!-- Generator: Adobe Illustrator 16.0.0, SVG Export Plug-In . SVG Version: 6.00 Build 0)  -->
<!DOCTYPE svg PUBLIC "-//W3C//DTD SVG 1.1//EN" "http://www.w3.org/Graphics/SVG/1.1/DTD/svg11.dtd">
<svg version="1.1" id="Capa_2" xmlns="http://www.w3.org/2000/svg" xmlns:xlink="http://www.w3.org/1999/xlink" x="0px" y="0px"
	 width="400px" height="400px" viewBox="0 0 400 400" style="enable-background:new 0 0 400 400;" xml:space="preserve">
<style type="text/css">
<![CDATA[
	.st0{fill-rule:evenodd;clip-rule:evenodd;fill:#009966;}
	.st1{fill-rule:evenodd;clip-rule:evenodd;fill:#009A64;}
]]>
</style>
<g>
	<path class="st0" d="M47.05,0c5.767,0,10.684,2.033,14.75,6.1c4.1,4.1,6.149,9.033,6.149,14.8S65.9,31.583,61.8,35.65
		c-4.066,4.1-8.983,6.15-14.75,6.15c-5.767,0-10.7-2.05-14.8-6.15c-4.066-4.066-6.1-8.983-6.1-14.75s2.034-10.7,6.1-14.8
		C36.35,2.033,41.283,0,47.05,0z"/>
	<path class="st1" d="M70.9,45.575V45.6c12.767,0.767,19.5,7.617,20.2,20.55l-0.45,62.3c0,2.2-0.767,4.066-2.3,5.6
		s-3.384,2.3-5.55,2.3c-2.2,0-4.066-0.767-5.601-2.3c-1.533-1.533-2.3-3.399-2.3-5.6v-54.1h-4.6L69.8,219.7
		c0,3-1.05,5.55-3.15,7.649c-2.1,2.101-4.633,3.15-7.6,3.15c-3,0-5.55-1.05-7.65-3.15c-2.1-2.1-3.15-4.649-3.15-7.649l-0.15-86.2H43
		l-0.15,86.2c0,3-1.05,5.55-3.15,7.649c-2.1,2.101-4.65,3.15-7.65,3.15c-2.967,0-5.5-1.05-7.6-3.15c-2.1-2.1-3.15-4.649-3.15-7.649
		L20.8,74.35h-4.6v54.1c0,2.2-0.767,4.066-2.3,5.6c-1.533,1.533-3.4,2.3-5.6,2.3c-2.167,0-4.017-0.767-5.55-2.3s-2.3-3.399-2.3-5.6
		L0,66.15C0.7,53.217,7.434,46.367,20.2,45.6c0.533-0.033,1.083-0.05,1.65-0.05h47.4C69.812,45.543,70.362,45.551,70.9,45.575z"/>
</g>
</svg>
