<?xml version="1.0" encoding="utf-8"?>
<!-- Generator: Adobe Illustrator 16.0.0, SVG Export Plug-In . SVG Version: 6.00 Build 0)  -->
<!DOCTYPE svg PUBLIC "-//W3C//DTD SVG 1.1//EN" "http://www.w3.org/Graphics/SVG/1.1/DTD/svg11.dtd">
<svg version="1.1" id="Capa_2" xmlns="http://www.w3.org/2000/svg" xmlns:xlink="http://www.w3.org/1999/xlink" x="0px" y="0px"
	 width="400px" height="400px" viewBox="0 0 400 400" enable-background="new 0 0 400 400" xml:space="preserve">
<path fill-rule="evenodd" clip-rule="evenodd" d="M199.55,0c13.4,0,24.834,4.75,34.3,14.25c9.601,9.533,14.4,21.067,14.4,34.6
	c0,13.4-4.8,24.85-14.4,34.35c-4.166,4.167-8.699,7.417-13.6,9.75c-6.267,3.033-13.167,4.55-20.7,4.55
	c-7.633,0-14.6-1.517-20.9-4.55c-4.967-2.333-9.533-5.583-13.7-9.75c-9.5-9.5-14.25-20.95-14.25-34.35
	c0-13.533,4.75-25.067,14.25-34.6C174.483,4.75,186.017,0,199.55,0z M259.05,103.65c29.9,1.2,45.283,12.45,46.15,33.75v98.95
	c0,3.601-1.75,6.617-5.25,9.051c-3.634,2.466-7.967,3.699-13,3.699c-5.2,0-9.584-1.233-13.15-3.699
	c-3.566-2.434-5.35-5.45-5.35-9.051V149.7H257.6l-1.149,232.95c0,4.866-2.467,8.966-7.4,12.3c-4.899,3.366-10.8,5.05-17.7,5.05
	c-7.033,0-13.033-1.684-18-5.05c-4.899-3.334-7.35-7.434-7.35-12.3l-0.35-138.15h-12.4l-0.35,138.15c0,4.866-2.45,8.966-7.35,12.3
	c-4.966,3.366-10.966,5.05-18,5.05c-6.9,0-12.8-1.684-17.7-5.05c-4.934-3.334-7.4-7.434-7.4-12.3L141.3,149.7h-10.85v86.649
	c0,3.601-1.784,6.617-5.35,9.051c-3.567,2.466-7.95,3.699-13.15,3.699c-5.034,0-9.367-1.233-13-3.699
	c-3.5-2.434-5.25-5.45-5.25-9.051V137.4c0.867-21.3,16.25-32.55,46.15-33.75c1.233-0.066,2.517-0.1,3.85-0.1h111.5
	C256.533,103.55,257.816,103.583,259.05,103.65z"/>
</svg>
