<?xml version="1.0" encoding="utf-8"?>
<!-- Generator: Adobe Illustrator 16.0.0, SVG Export Plug-In . SVG Version: 6.00 Build 0)  -->
<!DOCTYPE svg PUBLIC "-//W3C//DTD SVG 1.1//EN" "http://www.w3.org/Graphics/SVG/1.1/DTD/svg11.dtd">
<svg version="1.1" id="Capa_2" xmlns="http://www.w3.org/2000/svg" xmlns:xlink="http://www.w3.org/1999/xlink" x="0px" y="0px"
	 width="400px" height="400px" viewBox="0 0 400 400" enable-background="new 0 0 400 400" xml:space="preserve">
<path fill-rule="evenodd" clip-rule="evenodd" d="M352.1,213.85c0.7,3.367-0.166,6.483-2.6,9.351c-2.5,2.899-5.833,4.649-10,5.25
	c-4.233,0.633-8.134-0.066-11.7-2.101l-60-32.7l-15.35-24.45L235.5,229.35l67.7,65.95l16.55,84.2c1.2,4.7,0.134,9.017-3.2,12.95
	c-3.3,3.934-7.833,6.366-13.6,7.3c-5.9,0.9-11.3,0.017-16.2-2.65c-4.866-2.6-7.9-6.25-9.1-10.949L255.8,311.35l-54.7-47.699
	l-13.35,48.8L126.2,391.35c-2.967,4.167-7.3,6.867-13,8.101c-5.667,1.233-11.067,0.666-16.2-1.7c-5.133-2.4-8.467-5.934-10-10.6
	c-1.6-4.534-0.9-8.851,2.1-12.95l47.05-71.3l39.8-143.7l-26.6,15.6l-15.5,53.55c-0.867,3.5-3.117,6.2-6.75,8.101
	c-3.567,1.899-7.483,2.517-11.75,1.85c-4.267-0.7-7.583-2.483-9.95-5.35c-2.333-2.934-3.066-6.15-2.2-9.65l17.35-64.3l81.5-54.4
	c23.134-10.367,41.467-6.667,55,11.1l35.8,58.9l52.7,31.05C349.116,207.684,351.3,210.417,352.1,213.85z M309.1,48.9
	c0,13.4-4.8,24.85-14.399,34.35c-4.167,4.167-8.7,7.417-13.601,9.75c-6.267,3.033-13.166,4.55-20.699,4.55
	c-7.634,0-14.601-1.517-20.9-4.55c-4.967-2.333-9.533-5.583-13.7-9.75c-9.5-9.5-14.25-20.95-14.25-34.35
	c0-13.533,4.75-25.066,14.25-34.6c9.533-9.5,21.066-14.25,34.601-14.25c13.399,0,24.833,4.75,34.3,14.25
	C304.3,23.833,309.1,35.367,309.1,48.9z"/>
</svg>
