<?xml version="1.0" encoding="utf-8"?>
<!-- Generator: Adobe Illustrator 16.0.0, SVG Export Plug-In . SVG Version: 6.00 Build 0)  -->
<!DOCTYPE svg PUBLIC "-//W3C//DTD SVG 1.1//EN" "http://www.w3.org/Graphics/SVG/1.1/DTD/svg11.dtd">
<svg version="1.1" xmlns="http://www.w3.org/2000/svg" xmlns:xlink="http://www.w3.org/1999/xlink" x="0px" y="0px" width="400px"
	 height="400px" viewBox="0 0 400 400" enable-background="new 0 0 400 400" xml:space="preserve">
<g id="Capa_2">
	<path fill-rule="evenodd" clip-rule="evenodd" d="M39-2h269.75l-50,50H79c-8.267,0-15.333,2.933-21.2,8.8S49,69.733,49,78v240.95
		c0,8.3,2.933,15.383,8.8,21.25c5.867,5.866,12.934,8.8,21.2,8.8h241c8.267,0,15.333-2.934,21.2-8.8
		c5.866-5.867,8.8-12.95,8.8-21.25V143.8l50-50.45V359c0,11.033-3.917,20.45-11.75,28.25C380.45,395.083,371.033,399,360,399H39
		c-11.033,0-20.467-3.917-28.3-11.75C2.9,379.45-1,370.033-1,359V38c0-11.033,3.9-20.467,11.7-28.3C18.533,1.9,27.967-2,39-2z"/>
</g>
<g id="Capa_3">
	<path fill-rule="evenodd" clip-rule="evenodd" d="M80.95,318.15l21.35-80.45L276.5,63.6l59.15,59.1L161.5,296.85L80.95,318.15z
		 M366.05,92.3l-20.5,20.5L286.4,53.7l20.5-20.5L366.05,92.3z M341.4-1.3h19.3l39.85,39.75V57.8l-24.6,24.6L316.8,23.3L341.4-1.3z"
		/>
</g>
</svg>
